<!-- generated by assets/design/build.py from assets/design/icons/*.svg — edit those, not this -->
<svg xmlns="http://www.w3.org/2000/svg">
  <symbol id="bell" viewBox="0 0 24 24"><path d="M6 16V11a6 6 0 0 1 12 0v5l1.5 2h-15zM10 20a2 2 0 0 0 4 0" fill="none" stroke="currentColor" stroke-width="2.2" stroke-linecap="round" stroke-linejoin="round"/></symbol>
  <symbol id="chevron" viewBox="0 0 24 24"><path d="M6 9l6 6 6-6" fill="none" stroke="currentColor" stroke-width="2.2" stroke-linecap="round" stroke-linejoin="round"/></symbol>
  <symbol id="cog" viewBox="0 0 24 24"><path d="M 10.4 5.3 L 10.3 1.9 L 13.7 1.9 L 13.6 5.3 L 15.7 6.1 L 17.9 3.7 L 20.3 6.1 L 17.9 8.3 L 18.7 10.4 L 22.1 10.3 L 22.1 13.7 L 18.7 13.6 L 17.9 15.7 L 20.3 17.9 L 17.9 20.3 L 15.7 17.9 L 13.6 18.7 L 13.7 22.1 L 10.3 22.1 L 10.4 18.7 L 8.3 17.9 L 6.1 20.3 L 3.7 17.9 L 6.1 15.7 L 5.3 13.6 L 1.9 13.7 L 1.9 10.3 L 5.3 10.4 L 6.1 8.3 L 3.7 6.1 L 6.1 3.7 L 8.3 6.1 Z M 12 8.6 a 3.4 3.4 0 1 0 0 6.8 a 3.4 3.4 0 1 0 0 -6.8 Z" fill="currentColor" fill-rule="evenodd"/></symbol>
  <symbol id="eye" viewBox="0 0 24 24"><path d="M2.5 12s3.5-6.5 9.5-6.5 9.5 6.5 9.5 6.5-3.5 6.5-9.5 6.5S2.5 12 2.5 12z" fill="none" stroke="currentColor" stroke-width="2.2" stroke-linejoin="round"/><circle cx="12" cy="12" r="3" fill="none" stroke="currentColor" stroke-width="2.2"/></symbol>
  <symbol id="globe" viewBox="0 0 24 24"><circle cx="12" cy="12" r="9" fill="none" stroke="currentColor" stroke-width="2"/><ellipse cx="12" cy="12" rx="4" ry="9" fill="none" stroke="currentColor" stroke-width="2"/><path d="M3 12h18M4.4 7.5h15.2M4.4 16.5h15.2" fill="none" stroke="currentColor" stroke-width="2"/></symbol>
  <symbol id="ground" viewBox="0 0 24 24"><circle cx="12" cy="12" r="9" fill="none" stroke="currentColor" stroke-width="2"/><path d="M12 3a9 9 0 010 18z" fill="currentColor"/></symbol>
  <symbol id="rail" viewBox="0 0 24 24"><rect x="3" y="4.5" width="18" height="15" rx="1.5" fill="none" stroke="currentColor" stroke-width="2"/><path d="M4 6.5a1 1 0 011-1h5.5v13H5a1 1 0 01-1-1z" fill="currentColor"/></symbol>
  <symbol id="reload" viewBox="0 0 24 24"><path d="M20 12a8 8 0 1 1-2.34-5.66M20 4v4h-4" fill="none" stroke="currentColor" stroke-width="2.2" stroke-linecap="round" stroke-linejoin="round"/></symbol>
  <symbol id="workbench" viewBox="0 0 24 24"><path d="M 10.21 6.06 L 10.26 2.86 L 13.74 2.86 L 13.79 6.06 A 6.20 6.20 0 0 1 16.24 7.48 L 16.24 7.48 L 19.04 5.92 L 20.78 8.94 L 18.04 10.58 A 6.20 6.20 0 0 1 18.04 13.42 L 18.04 13.42 L 20.78 15.06 L 19.04 18.08 L 16.24 16.52 A 6.20 6.20 0 0 1 13.79 17.94 L 13.79 17.94 L 13.74 21.14 L 10.26 21.14 L 10.21 17.94 A 6.20 6.20 0 0 1 7.76 16.52 L 7.76 16.52 L 4.96 18.08 L 3.22 15.06 L 5.96 13.42 A 6.20 6.20 0 0 1 5.96 10.58 L 5.96 10.58 L 3.22 8.94 L 4.96 5.92 L 7.76 7.48 A 6.20 6.20 0 0 1 10.21 6.06 Z M 16 12 A 4 4 0 1 1 8 12 A 4 4 0 1 1 16 12 Z" fill="currentColor" fill-rule="evenodd" stroke="currentColor" stroke-width="2" stroke-linejoin="round"/></symbol>
  <symbol id="x" viewBox="0 0 24 24"><path d="M6 6l12 12M18 6L6 18" fill="none" stroke="currentColor" stroke-width="2.2" stroke-linecap="round"/></symbol>
</svg>
