<svg xmlns="http://www.w3.org/2000/svg" id="Sxc6rcIfDKTiy9KaqcwLR" width="536" height="568" viewBox="3004 2188 536 568" style="width: 100%; height: 100%; font-family: Inter, arial, sans-serif;"><g id="wrapper" transform="translate(0, 0) scale(1)"><g id="objects"><g transform="translate(3104, 2288)"><g><rect x="1" y="1" width="158" height="318" fill="#fffcfb" stroke="#f9c9aa" stroke-width="2px" stroke-opacity="1" rx="10" ry="10"/></g><g><rect x="-8" y="-8" width="176" height="16" fill="transparent"/><rect x="-8" y="312" width="176" height="16" fill="transparent"/><rect x="-8" y="-8" width="16" height="336" fill="transparent"/><rect x="152" y="-8" width="16" height="336" fill="transparent"/></g><g><g transform="translate(15.73333740234375, 10)"><text x="2" y="16" font-size="14px" fill="#983d00">Back-end services</text></g></g></g><g id="icn_sWAHHVUwhFhfFrc8RQTDO" transform="translate(3152,2336)"><g transform="translate(0,0)"><path d="&#xA;    M 0, 21.248&#xA;    C 0, 3.750272 3.750272, 0 21.248, 0&#xA;    L 42.751999999999995, 0&#xA;    C 60.249728, 0 64, 3.750272 64, 21.248&#xA;    L 64, 42.751999999999995&#xA;    C 64, 60.249728 60.249728, 64 42.751999999999995, 64&#xA;    L 21.248, 64&#xA;    C 3.750272, 64 0, 60.249728 0, 42.751999999999995&#xA;    L 0, 21.248&#xA;  " stroke-width="2" stroke="#e3d5f0" fill="#f5eff9"/></g><rect width="74" height="74" x="-5" y="-5" fill="transparent"/><rect width="54" height="54" x="5" y="5" fill="transparent"/><g><svg viewBox="0 0 50 50" width="40" height="40" x="12" y="12"><svg id="OsMFOorE-ZnlRl8lH5UZ2" xmlns="http://www.w3.org/2000/svg" viewBox="11.2 4.76 27.54 41.6" width="50" height="50"><g fill="none" fill-rule="evenodd"><path fill="url(#9FwuOc-jOCGnnzxJY255H)" d="M26.117 5.678c-2.906 1.03-5.711 4.036-8.416 9.02-4.057 7.474-9.296 18.095-2.081 26.505 3.338 3.89 8.849 6.187 16.081 2.55 5.81-2.922 7.427-11.306 5.34-15.245-4.302-8.127-8.668-10.131-9.837-15.171-.78-3.36-1.142-5.913-1.087-7.66z" clip-rule="evenodd"/><path fill="url(#-18WHfw880sgLQmpUAFnq)" d="M26.117 5.577c-2.921 1.04-5.726 4.047-8.416 9.02-4.035 7.458-9.297 18.096-2.082 26.505 3.338 3.89 8.779 5.148 11.797 2.84 1.968-1.504 3.307-2.938 4.078-5.959.859-3.364.2-7.893-.252-9.973-.571-2.633-.758-5.522-.56-8.669l-.156-.19c-1.572-1.923-2.785-3.599-3.322-5.915-.78-3.36-1.142-5.913-1.087-7.659z" clip-rule="evenodd"/><path fill="url(#WuytY0XEb2bsJIPEla4Gw)" d="M23.698 6.886c-2.72 2.15-4.743 5.756-6.068 10.819-1.987 7.594-2.203 14.597-1.502 18.67 1.36 7.897 8.404 10.894 15.63 7.219 4.447-2.262 6.3-7.117 6.201-12.387-.102-5.457-10.647-11.642-12.514-16.196-1.245-3.036-1.827-5.744-1.746-8.125z" clip-rule="evenodd"/><path fill="url(#M6DAmiXCm8ZHEaRsZ_MXD)" d="M30.596 21.123c3.262 4.185 3.974 7.097 2.133 8.739-2.76 2.462-9.51 4.068-13.71 1.09-2.8-1.986-3.86-6.245-3.178-12.778a58.666 58.666 0 0 0-2.932 7.335c-.798 2.477-1.031 5.068-.7 7.775 1.002 2.025 3.435 3.377 7.301 4.057 5.8 1.02 11.288.516 14.97-1.34 2.456-1.239 3.617-2.47 3.485-3.697.088-1.811-.47-3.535-1.676-5.172-1.206-1.638-3.103-3.64-5.694-6.009z" clip-rule="evenodd"/><path fill="url(#7iXIlZZZ22bjV5JS_SVJf)" d="M17.845 16.945c-.027 3.022.75 5.895 2.332 8.618 2.372 4.086 5.14 8.122 9.284 11.468 2.762 2.231 4.969 2.952 6.62 2.162-1.356 2.429-2.799 3.619-4.328 3.57-2.292-.072-5.088-1.075-9.568-6.458-2.986-3.589-5.03-6.983-6.13-10.184.175-1.27.36-2.535.556-3.795.195-1.26.607-3.053 1.234-5.38z" clip-rule="evenodd"/><path fill="url(#CNpm3UC-GQN2yK0h20bFZ)" d="M24.853 21.092c.253 2.462 1.211 6.4 0 9.022s-6.807 7.358-5.262 11.53c1.544 4.173 5.308 3.237 7.67 1.314 2.36-1.923 3.624-5.05 3.904-7.249.28-2.199-.67-6.43-.979-10.11-.206-2.453-.066-4.557.42-6.31l-.724-.91-4.258-1.262c-.683 1.01-.94 2.334-.771 3.975z" clip-rule="evenodd"/><path fill="url(#XKIsQ7stq6JxlT-ON4mlK)" d="M26.373 8.899c-1.378.582-2.684 1.736-3.918 3.462-1.85 2.588-2.792 4.14-2.094 9.27.465 3.421.797 6.568.998 9.441l5.965-17.33c-.22-.882-.402-1.68-.548-2.392a36.64 36.64 0 0 1-.403-2.451z" clip-rule="evenodd"/><path fill="#330A4C" fill-opacity=".316" d="M27.312 13.708c-1.514.884-2.687 2.694-3.52 5.432-.832 2.737-1.594 6.564-2.284 11.48.921-3.127 1.532-5.391 1.833-6.794.451-2.104.606-5.08 1.804-7.1.8-1.346 1.521-2.352 2.167-3.018z" clip-rule="evenodd"/><path fill="#fff" d="M20.302 43.038c2.491.356 3.794.673 3.908.95.171.415-.315.795-1.698.54-.922-.17-1.66-.667-2.21-1.49z" clip-rule="evenodd"/><path fill="#EDEDED" fill-opacity=".603" d="M21.553 8.899a32.185 32.185 0 0 0-3.562 5.207c-1.005 1.834-1.723 3.203-2.154 4.105-.134.673-.199 1.667-.196 2.98.004 1.314.117 2.774.341 4.381a35.232 35.232 0 0 1 1.802-9.165c1.004-2.963 2.26-5.466 3.77-7.508z" clip-rule="evenodd"/><defs><linearGradient id="9FwuOc-jOCGnnzxJY255H" x1="25.557" x2="24.17" y1="8.626" y2="45.547" gradientUnits="userSpaceOnUse"><stop stop-color="#D9D8DC"/><stop offset="1" stop-color="#fff" stop-opacity=".385"/></linearGradient><linearGradient id="-18WHfw880sgLQmpUAFnq" x1="26.184" x2="11.682" y1="8.617" y2="40.4" gradientUnits="userSpaceOnUse"><stop stop-color="#8D67AF" stop-opacity=".672"/><stop offset="1" stop-color="#9F8DAF"/></linearGradient><linearGradient id="WuytY0XEb2bsJIPEla4Gw" x1="27.803" x2="27.803" y1="18.914" y2="44.474" gradientUnits="userSpaceOnUse"><stop stop-color="#26053D" stop-opacity=".762"/><stop offset="1" stop-color="#B7B4B4" stop-opacity=".278"/></linearGradient><linearGradient id="M6DAmiXCm8ZHEaRsZ_MXD" x1="14.689" x2="21.196" y1="20.643" y2="37.879" gradientUnits="userSpaceOnUse"><stop stop-color="#91739F" stop-opacity=".46"/><stop offset="1" stop-color="#32054F" stop-opacity=".54"/></linearGradient><linearGradient id="7iXIlZZZ22bjV5JS_SVJf" x1="32.081" x2="14.188" y1="41.838" y2="27.012" gradientUnits="userSpaceOnUse"><stop stop-color="#463D49" stop-opacity=".331"/><stop offset="1" stop-color="#340A50" stop-opacity=".821"/></linearGradient><linearGradient id="CNpm3UC-GQN2yK0h20bFZ" x1="28.403" x2="15.784" y1="19.155" y2="38.353" gradientUnits="userSpaceOnUse"><stop stop-color="#715383" stop-opacity=".145"/><stop offset="1" stop-color="#F4F4F4" stop-opacity=".234"/></linearGradient><linearGradient id="XKIsQ7stq6JxlT-ON4mlK" x1="29.61" x2="20.673" y1="25.011" y2="24.465" gradientUnits="userSpaceOnUse"><stop stop-color="#A5A1A8" stop-opacity=".356"/><stop offset="1" stop-color="#370C50" stop-opacity=".582"/></linearGradient></defs></g></svg></svg><g transform="translate(-10.350006103515625, 68)"><g transform="translate(0,-4)"><text><tspan dy="19" x="42.35833740234375" text-anchor="middle"><tspan text-decoration="none" font-style="normal" font-size="14px" font-weight="normal" style="font-weight: normal;" fill="#000000">app</tspan></tspan><tspan dy="17" x="42.35833740234375" text-anchor="middle"><tspan text-decoration="none" font-style="normal" font-size="12px" font-weight="normal" style="font-weight: normal;" fill="hsl(0, 0%, 43.5%)">localhost:</tspan><tspan text-decoration="none" font-style="normal" font-size="12px" font-weight="normal" style="font-weight: normal;" fill="hsl(211, 100%, 43.2%)">4000</tspan></tspan></text></g></g></g></g><g id="icn_4e5T062Vt0jKV0bY4nzVA" transform="translate(3152,2496)"><g transform="translate(0,0)"><path d="&#xA;    M 0, 21.248&#xA;    C 0, 3.750272 3.750272, 0 21.248, 0&#xA;    L 42.751999999999995, 0&#xA;    C 60.249728, 0 64, 3.750272 64, 21.248&#xA;    L 64, 42.751999999999995&#xA;    C 64, 60.249728 60.249728, 64 42.751999999999995, 64&#xA;    L 21.248, 64&#xA;    C 3.750272, 64 0, 60.249728 0, 42.751999999999995&#xA;    L 0, 21.248&#xA;  " stroke-width="2" stroke="#bcdefb" fill="#e6f3fe"/></g><rect width="74" height="74" x="-5" y="-5" fill="transparent"/><rect width="54" height="54" x="5" y="5" fill="transparent"/><g><svg viewBox="0 0 50 50" width="40" height="40" x="12" y="12"><svg id="-m5yFlgvYfgh66b4thNNJ" xmlns="http://www.w3.org/2000/svg" viewBox="7.69 4.76 35.36 41.92" width="50" height="50"><g fill="none" fill-rule="evenodd"><path fill="#232F3D" d="M30.868 42.824a37.829 37.829 0 0 1-3.565.424c-.502.036-1.013.063-1.53.082-1.037.036-2.12.036-3.153 0a45.693 45.693 0 0 1-1.53-.082c-1.24-.09-2.44-.233-3.566-.424-4.425-.75-7.174-2.324-7.174-4.106V13.48c2.702 1.71 7.88 2.774 13.847 2.774 5.96 0 11.073-1.047 13.786-2.74v25.204c0 1.815-2.66 3.35-7.115 4.106ZM24.197 7.38c7.7 0 12.732 1.97 13.628 3.997-1.504 1.502-6.321 3.074-13.628 3.074-7.3 0-12.199-1.606-13.66-3.096l-.033.032c.888-2.031 5.946-4.007 13.693-4.007Zm0-1.803c-9.215 0-15.65 2.65-15.65 6.443v26.698c0 1.648 1.127 4.604 8.676 5.885 1.182.199 2.439.349 3.736.442a44.941 44.941 0 0 0 6.474 0 39.916 39.916 0 0 0 3.736-.442c7.497-1.273 8.617-4.233 8.617-5.885V12.02c0-3.794-6.41-6.443-15.59-6.443Z" clip-rule="evenodd"/><path fill="#000" d="M36.925 39.838c.157-1.31.11-1.503 1.086-1.29l.248.021c.751.034 1.733-.12 2.31-.389 1.243-.576 1.98-1.538.754-1.285-2.794.576-2.986-.37-2.986-.37 2.95-4.377 4.184-9.934 3.12-11.294-2.904-3.71-7.93-1.956-8.014-1.91l-.027.005a9.954 9.954 0 0 0-1.864-.194c-1.264-.021-2.224.331-2.951.883 0 0-8.966-3.694-8.549 4.645.089 1.774 2.543 13.424 5.47 9.905 1.07-1.287 2.104-2.374 2.104-2.374a2.713 2.713 0 0 0 1.772.452l.05-.042c-.016.16-.009.316.02.5-.754.843-.532.991-2.04 1.301-1.525.315-.63.874-.044 1.02.709.178 2.35.43 3.459-1.123l-.045.177c.296.237.276 1.701.318 2.747.042 1.046.112 2.023.326 2.598.213.576.464 2.058 2.446 1.634 1.655-.355 2.921-.866 3.037-5.617"/><path fill="#336791" d="M41.324 36.895c-2.795.576-2.987-.37-2.987-.37 2.95-4.378 4.184-9.934 3.12-11.294-2.904-3.71-7.93-1.956-8.014-1.91l-.027.005a9.963 9.963 0 0 0-1.864-.195c-1.264-.02-2.224.332-2.951.884 0 0-8.966-3.694-8.55 4.645.09 1.774 2.544 13.424 5.47 9.905a54.06 54.06 0 0 1 2.104-2.374 2.713 2.713 0 0 0 1.773.452l.05-.042c-.016.16-.009.316.02.5-.754.843-.533.991-2.04 1.301-1.526.315-.63.874-.044 1.02.709.178 2.35.43 3.458-1.123l-.044.177c.296.237.503 1.54.468 2.72-.034 1.181-.058 1.992.175 2.625.233.633.465 2.058 2.447 1.634 1.655-.355 2.513-1.275 2.633-2.809.084-1.09.276-.929.288-1.904l.154-.461c.177-1.478.028-1.955 1.048-1.734l.248.022c.751.034 1.734-.12 2.31-.389 1.242-.576 1.979-1.538.755-1.285Z"/><path stroke="#fff" stroke-linecap="round" stroke-linejoin="round" stroke-width=".683" d="M30.963 37.743c-.077 2.75.02 5.52.288 6.193.27.673.846 1.982 2.828 1.558 1.655-.355 2.258-1.042 2.52-2.558.192-1.116.563-4.214.61-4.848m-8.622-14.134s-8.972-3.667-8.555 4.672c.09 1.774 2.543 13.424 5.47 9.905 1.07-1.286 2.037-2.296 2.037-2.296m5.895-12.95c-.31.097 4.99-1.938 8.004 1.912 1.064 1.36-.17 6.917-3.12 11.294"/><path stroke="#fff" stroke-linecap="round" stroke-linejoin="bevel" stroke-width=".683" d="M38.318 36.491s.193.947 2.987.37c1.224-.253.487.71-.755 1.286-1.018.473-3.303.594-3.34-.06-.096-1.686 1.202-1.173 1.108-1.596-.084-.38-.665-.754-1.05-1.685-.335-.813-4.598-7.046 1.183-6.12.212-.044-1.508-5.5-6.918-5.588-5.41-.09-5.233 6.652-5.233 6.652"/><path stroke="#fff" stroke-linecap="round" stroke-linejoin="round" stroke-width=".683" d="M29.448 37.068c-.754.842-.532.99-2.04 1.3-1.525.315-.629.874-.044 1.02.71.178 2.35.43 3.46-1.123.337-.473-.003-1.227-.467-1.419-.224-.093-.523-.21-.909.222v0Z"/><path stroke="#fff" stroke-linecap="round" stroke-linejoin="round" stroke-width=".683" d="M29.4 37.053c-.077-.495.162-1.085.418-1.774.384-1.035 1.271-2.07.562-5.352-.53-2.445-4.077-.509-4.08-.177-.002.332.161 1.68-.059 3.252-.287 2.05 1.305 3.785 3.137 3.607"/><path fill="#fff" stroke="#fff" stroke-width=".228" d="M28.555 29.7c-.016.114.207.416.498.456.291.04.54-.195.556-.309.016-.113-.208-.238-.499-.278-.29-.04-.54.018-.555.131Z"/><path fill="#fff" stroke="#fff" stroke-width=".114" d="M37.41 29.47c.016.113-.207.415-.498.455-.291.04-.54-.195-.556-.309-.015-.113.208-.238.499-.278.291-.04.54.018.556.131Z"/><path stroke="#fff" stroke-linecap="round" stroke-linejoin="round" stroke-width=".683" d="M38.451 28.686c.048.888-.191 1.493-.221 2.439-.045 1.375.655 2.948-.4 4.523"/></g></svg></svg><g transform="translate(-10.199996948242188, 68)"><g transform="translate(0,-4)"><text><tspan dy="19" x="42.20832824707031" text-anchor="middle"><tspan text-decoration="none" font-style="normal" font-size="14px" font-weight="normal" style="font-weight: normal;" fill="#000000">database</tspan></tspan><tspan dy="17" x="42.20832824707031" text-anchor="middle"><tspan text-decoration="none" font-style="normal" font-size="12px" font-weight="normal" style="font-weight: normal;" fill="hsl(0, 0%, 43.5%)">localhost:</tspan><tspan text-decoration="none" font-style="normal" font-size="12px" font-weight="normal" style="font-weight: normal;" fill="hsl(211, 100%, 43.2%)">5432</tspan></tspan></text></g></g></g></g><g transform="translate(3280, 2448)"><g><rect x="1" y="1" width="158" height="158" fill="#fdfdfd" stroke="#d3d3d3" stroke-width="2px" stroke-opacity="1" rx="10" ry="10"/></g><g><rect x="-8" y="-8" width="176" height="16" fill="transparent"/><rect x="-8" y="152" width="176" height="16" fill="transparent"/><rect x="-8" y="-8" width="16" height="176" fill="transparent"/><rect x="152" y="-8" width="16" height="176" fill="transparent"/></g><g><g transform="translate(16.216659545898438, 10)"><text x="2" y="16" font-size="14px" fill="#595959">Workbench's tools</text></g></g></g><g id="icn_hkXxDjyVWDBmxagzC87lJ" transform="translate(3328,2496)"><g transform="translate(0,0)"><path d="&#xA;    M 0, 21.248&#xA;    C 0, 3.750272 3.750272, 0 21.248, 0&#xA;    L 42.751999999999995, 0&#xA;    C 60.249728, 0 64, 3.750272 64, 21.248&#xA;    L 64, 42.751999999999995&#xA;    C 64, 60.249728 60.249728, 64 42.751999999999995, 64&#xA;    L 21.248, 64&#xA;    C 3.750272, 64 0, 60.249728 0, 42.751999999999995&#xA;    L 0, 21.248&#xA;  " stroke-width="2" stroke="#bcdefb" fill="#e6f3fe"/></g><rect width="74" height="74" x="-5" y="-5" fill="transparent"/><rect width="54" height="54" x="5" y="5" fill="transparent"/><g><svg viewBox="0 0 50 50" width="40" height="40" x="12" y="12"><svg id="VvvNMJ3kGpEICaIWFEn8X" xmlns="http://www.w3.org/2000/svg" viewBox="8.64 4.76 33.16 41.6" width="50" height="50"><path fill="#232F3D" fill-rule="evenodd" d="M32.021 43.215a38.18 38.18 0 0 1-3.602.428c-.508.037-1.024.064-1.546.084a47.68 47.68 0 0 1-3.186 0c-.524-.02-1.04-.047-1.547-.084a38.185 38.185 0 0 1-3.603-.428c-4.471-.758-7.25-2.348-7.25-4.149V13.563c2.731 1.728 7.964 2.803 13.993 2.803 6.023 0 11.189-1.058 13.93-2.768v25.468c0 1.835-2.687 3.386-7.189 4.15zM25.28 7.4c7.781 0 12.865 1.99 13.771 4.039-1.52 1.518-6.387 3.106-13.771 3.106-7.377 0-12.327-1.622-13.804-3.128l-.033.032c.897-2.052 6.009-4.049 13.837-4.049zm0-1.822c-9.312 0-15.815 2.677-15.815 6.51v26.98c0 1.664 1.14 4.652 8.767 5.946 1.195.201 2.465.352 3.776.447a45.39 45.39 0 0 0 1.613.088 47.102 47.102 0 0 0 3.317 0c.547-.02 1.083-.05 1.612-.088a40.303 40.303 0 0 0 3.776-.447c7.575-1.286 8.707-4.277 8.707-5.947V12.087c0-3.833-6.479-6.51-15.753-6.51z" clip-rule="evenodd"/></svg></svg><g transform="translate(-10.066665649414062, 68)"><g transform="translate(0,-4)"><text><tspan dy="19" x="42.05833435058594" text-anchor="middle"><tspan text-decoration="none" font-style="normal" font-size="14px" font-weight="normal" style="font-weight: normal;" fill="#000000">pgadmin</tspan></tspan><tspan dy="17" x="42.05833435058594" text-anchor="middle"><tspan text-decoration="none" font-style="normal" font-size="12px" font-weight="normal" style="font-weight: normal;" fill="hsl(0, 0%, 43.5%)">localhost:</tspan><tspan text-decoration="none" font-style="normal" font-size="12px" font-weight="normal" style="font-weight: normal;" fill="hsl(211, 100%, 43.2%)">5050</tspan></tspan></text></g></g></g></g><g transform="translate(3104, 2624)"><g transform="translate(0, 0)"><g transform="translate(0,-4)"><text y="7.5"><tspan dy="17" x="168" text-anchor="middle"><tspan text-decoration="none" font-style="normal" font-size="12px" font-weight="normal" style="font-weight: normal;" fill="#000000">Arrows indicate the direction of connection.</tspan></tspan></text></g></g><rect x="-5" y="-5" width="341" height="37" fill="none" stroke="none"/><rect x="5" y="5" width="331" height="27" fill="none" stroke="none"/></g><g id="arr_6CYFtt40Sz9TjuRmpXpxM"><marker id="arrowhead_arr_6CYFtt40Sz9TjuRmpXpxM" refX="1" refY="3" orient="auto" markerWidth="8" markerHeight="8"><path d="M2.91922181,1.64495663 L4.49787879,4.07365967 C4.64837316,4.30518948 4.58268096,4.61488128 4.35115115,4.76537565 C4.27004602,4.81809399 4.17538993,4.84615385 4.07865698,4.84615385 L0.921343022,4.84615385 C0.645200647,4.84615385 0.421343022,4.62229622 0.421343022,4.34615385 C0.421343022,4.24942089 0.44940288,4.1547648 0.502121214,4.07365967 L2.08077819,1.64495663 C2.23127257,1.41342682 2.54096436,1.34773462 2.77249418,1.498229 C2.83112579,1.53633954 2.88111126,1.58632502 2.91922181,1.64495663 Z" fill="hsl(0, 0%, 52.3%)" transform="translate(2.500000, 2.923077) rotate(90.000000) translate(-2.500000, -2.923077)"/></marker><path id="arr_6CYFtt40Sz9TjuRmpXpxM_path" style="stroke-width: 3px; stroke: rgb(133, 133, 133);" stroke-linecap="round" marker-end="url(#arrowhead_arr_6CYFtt40Sz9TjuRmpXpxM)" d="M 3184 2448 L 3184 2484  " fill="none" pointer-events="stroke" stroke-linejoin="round"/><path style="stroke-width: 4px; stroke: transparent;" d="M 3184 2448 L 3184 2484  " fill="none" pointer-events="stroke"/></g><g id="arr_GbzGJSkJ0PYeHEGAws8l9"><marker id="arrowhead_arr_GbzGJSkJ0PYeHEGAws8l9" refX="1" refY="3" orient="auto" markerWidth="8" markerHeight="8"><path d="M2.91922181,1.64495663 L4.49787879,4.07365967 C4.64837316,4.30518948 4.58268096,4.61488128 4.35115115,4.76537565 C4.27004602,4.81809399 4.17538993,4.84615385 4.07865698,4.84615385 L0.921343022,4.84615385 C0.645200647,4.84615385 0.421343022,4.62229622 0.421343022,4.34615385 C0.421343022,4.24942089 0.44940288,4.1547648 0.502121214,4.07365967 L2.08077819,1.64495663 C2.23127257,1.41342682 2.54096436,1.34773462 2.77249418,1.498229 C2.83112579,1.53633954 2.88111126,1.58632502 2.91922181,1.64495663 Z" fill="hsl(0, 0%, 52.3%)" transform="translate(2.500000, 2.923077) rotate(90.000000) translate(-2.500000, -2.923077)"/></marker><path id="arr_GbzGJSkJ0PYeHEGAws8l9_path" style="stroke-width: 3px; stroke: rgb(133, 133, 133);" stroke-linecap="round" marker-end="url(#arrowhead_arr_GbzGJSkJ0PYeHEGAws8l9)" d="M 3323 2528 L 3228 2528  " fill="none" pointer-events="stroke" stroke-linejoin="round"/><path style="stroke-width: 4px; stroke: transparent;" d="M 3323 2528 L 3228 2528  " fill="none" pointer-events="stroke"/></g></g></g></svg>