<svg xmlns="http://www.w3.org/2000/svg" viewBox="0 0 24 24">
  <path d="M 10.21 6.06 L 10.26 2.86 L 13.74 2.86 L 13.79 6.06 A 6.20 6.20 0 0 1 16.24 7.48 L 16.24 7.48 L 19.04 5.92 L 20.78 8.94 L 18.04 10.58 A 6.20 6.20 0 0 1 18.04 13.42 L 18.04 13.42 L 20.78 15.06 L 19.04 18.08 L 16.24 16.52 A 6.20 6.20 0 0 1 13.79 17.94 L 13.79 17.94 L 13.74 21.14 L 10.26 21.14 L 10.21 17.94 A 6.20 6.20 0 0 1 7.76 16.52 L 7.76 16.52 L 4.96 18.08 L 3.22 15.06 L 5.96 13.42 A 6.20 6.20 0 0 1 5.96 10.58 L 5.96 10.58 L 3.22 8.94 L 4.96 5.92 L 7.76 7.48 A 6.20 6.20 0 0 1 10.21 6.06 Z M 16 12 A 4 4 0 1 1 8 12 A 4 4 0 1 1 16 12 Z" fill="currentColor" fill-rule="evenodd" stroke="currentColor" stroke-width="2" stroke-linejoin="round"/>
</svg>
